{
	"asset":{
		"copyright":"DMB",
		"generator":"Khronos glTF Blender I/O v3.6.27",
		"version":"2.0"
	},
	"extensionsUsed":[
		"KHR_materials_specular",
		"KHR_materials_ior"
	],
	"scene":0,
	"scenes":[
		{
			"extras":{
				"assets used":{},
				"uuid":"e52422dc-482b-40d7-b41a-513a08a1c1db",
				"assets reported":{}
			},
			"name":"Scene",
			"nodes":[
				0
			]
		}
	],
	"nodes":[
		{
			"mesh":0,
			"name":"Trace Object.001",
			"translation":[
				-0.05906687304377556,
				0,
				-8.524415969848633
			]
		}
	],
	"materials":[
		{
			"doubleSided":true,
			"name":"Top Surface",
			"pbrMetallicRoughness":{
				"baseColorFactor":[
					0.013701324351131916,
					0.5394792556762695,
					0.5394796133041382,
					1
				],
				"metallicFactor":0.936363697052002,
				"roughnessFactor":0.20000004768371582
			}
		},
		{
			"doubleSided":true,
			"extensions":{
				"KHR_materials_specular":{
					"specularColorFactor":[
						0.905427437367378,
						0.905427437367378,
						0.905427437367378
					]
				},
				"KHR_materials_ior":{
					"ior":1.4500000476837158
				}
			},
			"name":"TraceGenius Side Faces",
			"pbrMetallicRoughness":{
				"baseColorFactor":[
					0,
					0.8000000715255737,
					0.8000000715255737,
					1
				],
				"metallicFactor":0.6545454263687134,
				"roughnessFactor":0.5
			}
		}
	],
	"meshes":[
		{
			"name":"TraceGenius Object.023",
			"primitives":[
				{
					"attributes":{
						"POSITION":0,
						"NORMAL":1,
						"TEXCOORD_0":2
					},
					"indices":3,
					"material":0
				},
				{
					"attributes":{
						"POSITION":4,
						"NORMAL":5,
						"TEXCOORD_0":6
					},
					"indices":7,
					"material":1
				}
			]
		}
	],
	"accessors":[
		{
			"bufferView":0,
			"componentType":5126,
			"count":7676,
			"max":[
				1.6540206670761108,
				0.10000000149011612,
				1.4875770807266235
			],
			"min":[
				-1.5297068357467651,
				-0.10000000149011612,
				-1.67741858959198
			],
			"type":"VEC3"
		},
		{
			"bufferView":1,
			"componentType":5126,
			"count":7676,
			"type":"VEC3"
		},
		{
			"bufferView":2,
			"componentType":5126,
			"count":7676,
			"type":"VEC2"
		},
		{
			"bufferView":3,
			"componentType":5123,
			"count":22596,
			"type":"SCALAR"
		},
		{
			"bufferView":4,
			"componentType":5126,
			"count":7748,
			"max":[
				1.6540206670761108,
				0.10000000149011612,
				1.4875770807266235
			],
			"min":[
				-1.5297068357467651,
				-0.10000000149011612,
				-1.67741858959198
			],
			"type":"VEC3"
		},
		{
			"bufferView":5,
			"componentType":5126,
			"count":7748,
			"type":"VEC3"
		},
		{
			"bufferView":6,
			"componentType":5126,
			"count":7748,
			"type":"VEC2"
		},
		{
			"bufferView":7,
			"componentType":5123,
			"count":23028,
			"type":"SCALAR"
		}
	],
	"bufferViews":[
		{
			"buffer":0,
			"byteLength":92112,
			"byteOffset":0,
			"target":34962
		},
		{
			"buffer":0,
			"byteLength":92112,
			"byteOffset":92112,
			"target":34962
		},
		{
			"buffer":0,
			"byteLength":61408,
			"byteOffset":184224,
			"target":34962
		},
		{
			"buffer":0,
			"byteLength":45192,
			"byteOffset":245632,
			"target":34963
		},
		{
			"buffer":0,
			"byteLength":92976,
			"byteOffset":290824,
			"target":34962
		},
		{
			"buffer":0,
			"byteLength":92976,
			"byteOffset":383800,
			"target":34962
		},
		{
			"buffer":0,
			"byteLength":61984,
			"byteOffset":476776,
			"target":34962
		},
		{
			"buffer":0,
			"byteLength":46056,
			"byteOffset":538760,
			"target":34963
		}
	],
	"buffers":[
		{
			"byteLength":584816,
			"uri":"data:application/octet-stream;base64,"
		}
	]
}
