{
	"asset":{
		"copyright":"DMB",
		"generator":"Khronos glTF Blender I/O v3.6.27",
		"version":"2.0"
	},
	"extensionsUsed":[
		"KHR_materials_specular",
		"KHR_materials_ior"
	],
	"scene":0,
	"scenes":[
		{
			"extras":{
				"assets used":{},
				"uuid":"e52422dc-482b-40d7-b41a-513a08a1c1db",
				"assets reported":{}
			},
			"name":"Scene",
			"nodes":[
				0
			]
		}
	],
	"nodes":[
		{
			"mesh":0,
			"name":"Trace Object.071",
			"rotation":[
				0.043591588735580444,
				-0.01881076581776142,
				-0.05551394075155258,
				0.997328519821167
			],
			"translation":[
				1.9141550064086914,
				0,
				0.02713194489479065
			]
		}
	],
	"materials":[
		{
			"doubleSided":true,
			"extensions":{
				"KHR_materials_specular":{
					"specularColorFactor":[
						1.5090457289456298,
						1.5090457289456298,
						1.5090457289456298
					]
				},
				"KHR_materials_ior":{
					"ior":1.4500000476837158
				}
			},
			"name":"Logo",
			"pbrMetallicRoughness":{
				"baseColorFactor":[
					0.013701324351131916,
					0.5394792556762695,
					0.5394796133041382,
					1
				],
				"metallicFactor":0.8727272748947144,
				"roughnessFactor":0.7318181991577148
			}
		}
	],
	"meshes":[
		{
			"name":"TraceGenius Object.095",
			"primitives":[
				{
					"attributes":{
						"POSITION":0,
						"NORMAL":1,
						"TEXCOORD_0":2
					},
					"indices":3,
					"material":0
				}
			]
		}
	],
	"accessors":[
		{
			"bufferView":0,
			"componentType":5126,
			"count":34536,
			"max":[
				0.20448637008666992,
				0.059999994933605194,
				0.6506412029266357
			],
			"min":[
				-4.535374164581299,
				-0.059999994933605194,
				-0.3387700319290161
			],
			"type":"VEC3"
		},
		{
			"bufferView":1,
			"componentType":5126,
			"count":34536,
			"type":"VEC3"
		},
		{
			"bufferView":2,
			"componentType":5126,
			"count":34536,
			"type":"VEC2"
		},
		{
			"bufferView":3,
			"componentType":5123,
			"count":102336,
			"type":"SCALAR"
		}
	],
	"bufferViews":[
		{
			"buffer":0,
			"byteLength":414432,
			"byteOffset":0,
			"target":34962
		},
		{
			"buffer":0,
			"byteLength":414432,
			"byteOffset":414432,
			"target":34962
		},
		{
			"buffer":0,
			"byteLength":276288,
			"byteOffset":828864,
			"target":34962
		},
		{
			"buffer":0,
			"byteLength":204672,
			"byteOffset":1105152,
			"target":34963
		}
	],
	"buffers":[
		{
			"byteLength":1309824,
			"uri":"data:application/octet-stream;base64,"
		}
	]
}
